<mxfile host="app.diagrams.net" modified="2024-03-12T23:48:22.571Z" agent="Mozilla/5.0 (Windows NT 10.0; Win64; x64) AppleWebKit/537.36 (KHTML, like Gecko) Chrome/120.0.0.0 YaBrowser/24.1.0.0 Safari/537.36" etag="H0NSzv0MSIJ9td16L0jl" version="24.0.1" type="device">
  <diagram name="Страница — 1" id="04X9m_z7hFCkWU0wWO8R">
    <mxGraphModel dx="1829" dy="575" grid="1" gridSize="10" guides="1" tooltips="1" connect="1" arrows="1" fold="1" page="1" pageScale="1" pageWidth="827" pageHeight="1169" math="0" shadow="0">
      <root>
        <mxCell id="0" />
        <mxCell id="1" parent="0" />
        <mxCell id="CYFQGRgLWxrWDskYF3xV-42" style="edgeStyle=orthogonalEdgeStyle;rounded=0;orthogonalLoop=1;jettySize=auto;html=1;exitX=0.5;exitY=1;exitDx=0;exitDy=0;entryX=0.5;entryY=0;entryDx=0;entryDy=0;" edge="1" parent="1" source="CYFQGRgLWxrWDskYF3xV-32" target="CYFQGRgLWxrWDskYF3xV-40">
          <mxGeometry relative="1" as="geometry" />
        </mxCell>
        <mxCell id="CYFQGRgLWxrWDskYF3xV-32" value="" style="rounded=0;whiteSpace=wrap;html=1;" vertex="1" parent="1">
          <mxGeometry x="260" y="820" width="200" height="60" as="geometry" />
        </mxCell>
        <mxCell id="CYFQGRgLWxrWDskYF3xV-24" style="edgeStyle=orthogonalEdgeStyle;rounded=0;orthogonalLoop=1;jettySize=auto;html=1;exitX=0.5;exitY=1;exitDx=0;exitDy=0;entryX=0.5;entryY=1;entryDx=0;entryDy=0;" edge="1" parent="1" source="CYFQGRgLWxrWDskYF3xV-16" target="CYFQGRgLWxrWDskYF3xV-23">
          <mxGeometry relative="1" as="geometry" />
        </mxCell>
        <mxCell id="CYFQGRgLWxrWDskYF3xV-16" value="" style="rounded=0;whiteSpace=wrap;html=1;" vertex="1" parent="1">
          <mxGeometry x="350" y="570" width="200" height="70" as="geometry" />
        </mxCell>
        <mxCell id="CYFQGRgLWxrWDskYF3xV-5" value="" style="edgeStyle=orthogonalEdgeStyle;rounded=0;orthogonalLoop=1;jettySize=auto;html=1;" edge="1" parent="1" source="CYFQGRgLWxrWDskYF3xV-2" target="CYFQGRgLWxrWDskYF3xV-4">
          <mxGeometry relative="1" as="geometry" />
        </mxCell>
        <mxCell id="CYFQGRgLWxrWDskYF3xV-2" value="Начало" style="rounded=1;whiteSpace=wrap;html=1;perimeterSpacing=0;arcSize=50;" vertex="1" parent="1">
          <mxGeometry x="120" y="200" width="120" height="40" as="geometry" />
        </mxCell>
        <mxCell id="CYFQGRgLWxrWDskYF3xV-7" style="edgeStyle=orthogonalEdgeStyle;rounded=0;orthogonalLoop=1;jettySize=auto;html=1;exitX=0.5;exitY=1;exitDx=0;exitDy=0;entryX=0.5;entryY=0;entryDx=0;entryDy=0;" edge="1" parent="1" source="CYFQGRgLWxrWDskYF3xV-4" target="CYFQGRgLWxrWDskYF3xV-6">
          <mxGeometry relative="1" as="geometry" />
        </mxCell>
        <mxCell id="CYFQGRgLWxrWDskYF3xV-4" value="Ввод&lt;div&gt;matrix_dim, [A|b],&lt;/div&gt;&lt;div&gt;epsilon&amp;nbsp;&lt;/div&gt;" style="shape=parallelogram;perimeter=parallelogramPerimeter;whiteSpace=wrap;html=1;fixedSize=1;" vertex="1" parent="1">
          <mxGeometry x="120" y="270" width="120" height="60" as="geometry" />
        </mxCell>
        <mxCell id="CYFQGRgLWxrWDskYF3xV-9" style="edgeStyle=orthogonalEdgeStyle;rounded=0;orthogonalLoop=1;jettySize=auto;html=1;exitX=0;exitY=0.5;exitDx=0;exitDy=0;entryX=0.5;entryY=0;entryDx=0;entryDy=0;" edge="1" parent="1" source="CYFQGRgLWxrWDskYF3xV-6" target="CYFQGRgLWxrWDskYF3xV-8">
          <mxGeometry relative="1" as="geometry" />
        </mxCell>
        <mxCell id="CYFQGRgLWxrWDskYF3xV-15" style="edgeStyle=orthogonalEdgeStyle;rounded=0;orthogonalLoop=1;jettySize=auto;html=1;entryX=0.5;entryY=0;entryDx=0;entryDy=0;" edge="1" parent="1" source="CYFQGRgLWxrWDskYF3xV-6" target="CYFQGRgLWxrWDskYF3xV-13">
          <mxGeometry relative="1" as="geometry">
            <Array as="points">
              <mxPoint x="360" y="390" />
            </Array>
          </mxGeometry>
        </mxCell>
        <mxCell id="CYFQGRgLWxrWDskYF3xV-6" value="&lt;div&gt;&lt;span style=&quot;font-size: 10px; background-color: initial;&quot;&gt;&amp;nbsp; A приводится &lt;br&gt;к диагональному&lt;/span&gt;&lt;br&gt;&lt;/div&gt;&lt;font style=&quot;font-size: 10px;&quot;&gt;виду?&lt;/font&gt;" style="rhombus;whiteSpace=wrap;html=1;" vertex="1" parent="1">
          <mxGeometry x="120" y="350" width="120" height="80" as="geometry" />
        </mxCell>
        <mxCell id="CYFQGRgLWxrWDskYF3xV-12" style="edgeStyle=orthogonalEdgeStyle;rounded=0;orthogonalLoop=1;jettySize=auto;html=1;exitX=0.5;exitY=1;exitDx=0;exitDy=0;entryX=0;entryY=0.5;entryDx=0;entryDy=0;" edge="1" parent="1" source="CYFQGRgLWxrWDskYF3xV-8" target="CYFQGRgLWxrWDskYF3xV-11">
          <mxGeometry relative="1" as="geometry" />
        </mxCell>
        <mxCell id="CYFQGRgLWxrWDskYF3xV-8" value="Вывести&lt;div&gt;errorMessage&lt;/div&gt;" style="shape=parallelogram;perimeter=parallelogramPerimeter;whiteSpace=wrap;html=1;fixedSize=1;" vertex="1" parent="1">
          <mxGeometry x="-20" y="490" width="120" height="60" as="geometry" />
        </mxCell>
        <mxCell id="CYFQGRgLWxrWDskYF3xV-10" value="нет" style="text;html=1;align=center;verticalAlign=middle;resizable=0;points=[];autosize=1;strokeColor=none;fillColor=none;" vertex="1" parent="1">
          <mxGeometry x="80" y="360" width="40" height="30" as="geometry" />
        </mxCell>
        <mxCell id="CYFQGRgLWxrWDskYF3xV-11" value="Конец" style="rounded=1;whiteSpace=wrap;html=1;perimeterSpacing=0;arcSize=50;" vertex="1" parent="1">
          <mxGeometry x="170" y="1110" width="120" height="40" as="geometry" />
        </mxCell>
        <mxCell id="CYFQGRgLWxrWDskYF3xV-20" style="edgeStyle=orthogonalEdgeStyle;rounded=0;orthogonalLoop=1;jettySize=auto;html=1;exitX=0.5;exitY=1;exitDx=0;exitDy=0;entryX=0;entryY=0.5;entryDx=0;entryDy=0;" edge="1" parent="1" source="CYFQGRgLWxrWDskYF3xV-13" target="CYFQGRgLWxrWDskYF3xV-19">
          <mxGeometry relative="1" as="geometry" />
        </mxCell>
        <mxCell id="CYFQGRgLWxrWDskYF3xV-13" value="Цикл i&lt;div&gt;от 0 до n&lt;/div&gt;" style="shape=loopLimit;whiteSpace=wrap;html=1;" vertex="1" parent="1">
          <mxGeometry x="310" y="410" width="100" height="60" as="geometry" />
        </mxCell>
        <mxCell id="CYFQGRgLWxrWDskYF3xV-14" value="" style="shape=image;verticalLabelPosition=bottom;labelBackgroundColor=default;verticalAlign=top;aspect=fixed;imageAspect=0;image=data:image/png,iVBORw0KGgoAAAANSUhEUgAAAeUAAACSCAYAAAB7YNKvAAAAAXNSR0IArs4c6QAAAARnQU1BAACxjwv8YQUAAAAJcEhZcwAADsMAAA7DAcdvqGQAACkjSURBVHhe7d0NcBP33Sfwb+8ygzMpiHtyg5jLEXOJwTQPWA7F8iQl1hFAeTLxS4lfoMGPk2JwnsQ2ucR2ntRCTYNjSDFuwTJpInAIwjxpLDeM5VwYC1qQ6aUn0wHLXCiCKWORZMbKhKm3A+NlQmdv/7srS7YlWTZ+WVu/T2aj1UpGb7v72//b7/89QQRCCCGETLv/pNwSQgghZJpRUCaEEEJUgoIyIYQQohIUlAkhhBCVoKBMCCGEqAQFZUIIIUQlKCgTQgghKkFBmRBCCFEJCsqEEEKISlBQJoQQQlSCgjIhhBCiEhSUCSGEEJWgoEwIIYSoBAVlQgghRCUoKBNCCCEqQUGZEEIIUQkKyoQQQohKUFAmhBBCVIKCMiGEEKISFJQJIYSo2y0O/B1l/W5N5L81CSgoE0IIUS3udA3yqtrgu61suEv8JSvyf1yHLk7ZoDLfE0TKOiGEEKIa/Lk6ZD7nx+v/dy+M9ysbQ3CXXHCd74HvBrvXBy9ysPcVPRKkRyPztRZj3W+W4ZijCvr7lI0qQUGZEEKI+nztQPH/rMBC60XUrgkXZv1w/mwrLJcG0Hu6Cz5xi6HhItpfSJQfjoqD87VVKL1Zjz9as6FVtqoBBWVCCCEqIwfNvBu7cPVI/ihB0wPL6idg6tHC7LqKqkeVzaO5ZkNeag0Wf/xn7H1ao2ycftSmTAghRF16bKg5BFQVZ41eir1+Be4etlIA/Q+kLbF5qADlFYC11iaGdfWgoEwIIURFeLiON8CjLcFTGaO1Dotl6i/ccLCVDalYNvrTQyQgfU0RtD0mHD2hnl5fFJQJIYSoB9eJ9no/8IIBemVTZDy6P7dKa4Y1+jG3DSfoM8TytVhabndBLWGZgjIhhBDV4M+7wMJsycpkeUNUXvScZrdaZPxzLB28hklIhWGreNvcCbdKojIFZUIIIarhPd8i/t+AlOQYOl9d88AZaE9eIW2RcV7YzXlIW7IC615zSD2zw9MgOcUg3rbBc03eMt0oKBNCCFEJP670+MXbZCwMMy55OM7bAxdbCWlP5nssKNxiA/IPoPXdIizsrEDLBfmxcOZrWYncD89f2etOPwrKhBBCVMKH3uPsVov5oxaUR7Yns2QjW48movbjWmT1W7EutwaOK2KwjZJWU/Nf5ZZox18jl6enEgVlQggh6sAPoJ/dZi2OodPW0PZklo5za4sOtXXZSLwHuH1baSROM8MYWrU93P1asApstaDkIYSQoe7w4G5NUKLhcZsDjWZM41vIbPC1HYU/KIZjQ9PoSUOu2ZCVWgaXGFJLSheg9/tFaDIZEFrA5jkxMN+nQYIYpCMKvOamZlxVQXYvCsqEkCH8rYVYskUa+TmNjGjsbkXRQ8pdEh/GEJS5E5VYtFGuvgYSod/wFHKyClDwYz200YLwcGO5EJgCFJQJIUNJOYcLYQ/t91K4F+2bYhmiMorb38B7qQ9+nxtdHg9c5yK34+l2n8XZUp1yj8SFmAMkD5d5AbL2s3zX52B/GuhsNqH0LSf8DxWh+X83IvsB5amjCbzmK+34psYw6mQWk44FZUJmv37BfbhBqH4pU8jMZstaYfncucJccck92qs8hwQMfL5TWK18P/KyVtjTNaA8OoG+GxB6u1qEhldzB3+PweVHDUK38jQSL9zCnph++26h4UdsP0kS90tlk6h732pp31ndGPLXAwNC1D23a4+8v73jVjZML+roReID50bLdhMszS64TrNFnlWGdRJJTx5H0oFZLuGxKtSbQvMpdaHm1Tp03VLuTpR7EpCYlo/yX7Xi4tVTaHwx5DV7GuA8p6yTODEHCSniTQ+PqL0aQvNdh3Timq+ZL916bgb+2gfbxny0xDAG2aCd7oprGQVlEh80Rrz95Zf4UlyuHitRNjI50C1VVkmIBOj/vR61acpdpqcOm191YNJGc2r1KKo7hYvi7yOHZj+sn7nAS+skPixGsvTje+D7WtoQVqR8136/NGoZ2Q8rF9rXXHDckw9DlL4Jfp88HUVKIgVlQqZUgkYDDVu+P0fZIspKRyyJg+KTDuWHm5Ct3GP8v61AdevkjudMzNqL33WYpcDsr3fCTVE5jgQybLnR+428JZzeS23S7fB819oHjNJt4v3soObR9ZENi7fmIFpdmM/Lwns2Uh9WR29/Csok7shp/GS6x5dGPWDj3oP5qP0gtMONH/YtFbBNckpCzWNVaLKyywEL7CfVM4MPmXyJ/5wh7m9+dHoiXfwFsn7pkaUfevQmbngd5gwtLK9mIiszE3sSduHtqHMl+3C5S7xZY4T+QXnLdKPe1yTO+GDLWYEyKekAUNXxd5gfk9dJJMqE84dCKq7TzDjlqIL+PuX+pBB/q1zxt9I248t3s4eMPyWzmQeW1U/A9HCUHtg8B+4fGmjC7n88OI61Kccw1l3pec01XET7C+q4PKeSMokvfg9cSkAGSpD+iLJKotDAWHMM5tD25XM1qG7smuT23kQUVJph+NoN9w1lE4kDOmT8RA8c/xgdkWpkEiIFZCZBbqaKIfmM7/THcCAbRevVU19GQZnEFf6SG3ZlHRvSoaPiV2zu06P8HbmdN6CrdjN2TPLk8KwXeHtbLYwxTE5AZg/dptdRonXiYLvcCWtyeOB4zwmdaTuyYh3TPAUoKJO4MqQ9Wb80fNUYCSshrQpNDXJHGpkf1u2vwX5duUvIRLnfiPLd+ehrPArnJNWS+I83oMFfAvNW/fQnDAlBQZnEER88nYF2US2y9YFsUawNipMW6ugbXeIL9WjaFHIp47ej2GwXv1kyWVj+ZmnfjDLTkSqwdl7pvUY4ilhO9WiPD5OY93PsWtOG0n2TMCzuhhN1r/tQ8h9vq64WhoIyiR9D2pNzoHvQD9f+YqQtWYBFixZJy4IlaSje74Jf7SfAaZOI/DfrkR9axXC8GMX1HrqgmUh3xH3z/Urkpc7DgsC++U8rULi/C1KDAedDV6cLnkkbNB477pIDdVvSsGSB/D4XLVqAJZkm2C8FmjZ4eFtNyPpB4DiTH3eMWsMi7mu//hRmfxlKJ3QYng/2n1Xgb7ubUJWmpjKyQsrrRUgcGPhDdTCF4w9zhdwnxVvdZqHB0S309vcLfd42YeczSdLjSdtaBEq+GdmUpeGMQ/3n3xc269h3miRkvnFEOOPtE/r7ewX30QphrfhdL3+pWqhg+y773pP2TGsq0t5PSoXl4vtc9dMGoa3rstAX8j7lfaJPcL+zVlqvOOoWj7M+4fJnO4VM9viP9gjuWHaZ73qFth3VQttXyv271PdJtVDtUO/RTUGZxI3uvXLADSxJ244Il28qDwb89YiQqzy+NjR/LhlmQDnZBr/PuUnVwpnh3ycZk97PAgEtSdhy+PKInM19n2wRkkK/8+em7+JxoGuP+F7F9/nR8HcwIJzZoby/pCTx/a4Wdn6ufBJfR/CCQlxC81YTGVVfkzgR2p4MaDc14ZS1CMnDh1U8pEO6UjXbtc8BF9XJRhAmDaffgq2vUvvyePHn6lC80QqWy0K7qR67Xkge0QFJu2E7trPc0ArtymlKfnPLhZrnagDTMRzYNPwdJODe7yurfj/8hVXY/hj7JDxch0thHcxnLh5oY5liMU5QUCbxgfOiZ7A9uQj1u/MjnMzmY3Fg3I/fhq6/KOtD+OA0FyLrZSs8Ez1Bw4wSLg1nNXZOchrOWemGEzvEIMcCMptL2vxGpMn252NhyI5bsHL06TT5HivKcgphOhHr76Ls389bIk5A4jtugQUleD1sz2UO/SFt3dlPpiuJX27jNheagGY7jI8q62QQZfQicYE/bcKCHIt8Z00jLrYVRQjKXaibtw5iGUCSf+QqmjYMPT36jxdjyfNstLMWZtdVVI37xMKhq9k2SYkxNEgvLIJ+CnqW+lqLsW6LHcHTrRGN3a0oijIJAAnF5gZegaz9yjdYGCWDGe+CaUGWGBCZbDT9pRn5UcfYelC35AnUsH96UzOuWiMF+yDuRCUWiSX2yPu3nHGrYX07Lr4Zbv5h8RhaIh5D0scxiPtCe3BfuO5C3Tt74UnIwnZTyZTsnzOOVIkdpwb6Z2PHlAGhf1Z+rrvT3SjPs8qWIXOtDtfXJmxRnseWzfY+5YGggfMNQmbSciF3nzv6PK2j6e8QKpKCrzWxS5JQ4exXXmiy9Qsdrw5tr5/75B7BTe3LsQnpx8CW6j9E2avO7wm2KWcfiaE9uU9oe2m5kJReKrT5lE2j8bwv7t9Jwqrytoj//kB/vxDxNCN+HqkjF1toTuwxi9Og3C+ceTtXKA3TkWLm6xVatq0SSu3q7V049cTv5DnlJCEuUU96n+8cfB5bqCNKjG66hT0hHXhYb9v3v1Aem+H6vxp5YTaRQi8Y586tEDqiXEv1Hs4cfG6SSiblH67Pvjn4eXacmYXn2MkVh23KPLp+mYutN0pQG6YjBatS9HY6YNtvgYUt5jJY/jSTevuwsX0HkPibdSimtj0Z54W7XVlHPtIfGfmrB3jOO5U1JhuLR6vrI7IhaTi1yP+gCSWzIa/4NRuKi9rgVe5OPB88zpBUklFTv4rnph55vmCmQB/S40s1eFz2SDMdS0oeTw1zjiXRxF1Q9h8vxeZD6ThUYwzfZuN3w1Z/EHaHFSazCab9Pmi0KtmtWEKB+jysqB8lH6x4gqz69Xb4thSj7gJ1H8Y1D+TZV0VrDNBFDLQ+XPk85LtNScdSlUznNhP4fZelntd61iM3b1r6BCudmrJQeXwiLkhZb+E6LK7ciNG7U4l7zwkTCnPKYO0ZwzE3pAPiKKlf+W64DinrbP7fpWoMdz3o+q2yCgNSJmqy8lseWF/OQtZrDmkfm9WUEnN8+FZuwwvXTjiCp0FOjjCdg/O/Y+3DvUK3q0No2Vch5EoJBcQlpmqrAeHML5KEuU9Sm07/ZxXB6rRo3923bUJp4Hnikns0tAmgX+h+r1RYK/4Gy58sFd4/P1XttTODPGZ1upOudAsNP1J+v21twl1XOovngLWxHj8hfRGS9o7hiPuqRdis/B1bojatBM5JbBmtPdnXJlQXrBKSklYJuTvahN7vlO2R9F8WWnZsFvfvJGHVM6VCw+fj3L8nqT05WMW/RWib3NaEaRdXJWVPcw2sqMK2zNHrJH2X3JDKTJv0MV0lj4brtMDSOcYZdS5YsGjRChS+ZYHrWy0Wj6nwkQDDv5phPGfCwfb4niSe5/+mrInli4cjf4nc507YlHVoS1DydOC5rMmjEDu+zcax/3MRVQttqCyogTO+v9ag63aUsuE8aWYc+3WkoWZTYTGSHxNf/SEjarcZR+1lHB0H54dWpO/YhkCG9Kg0iUjN0CJxfS2O/VtMfxGGWPp9OHLp13feKZ+TRNrHlwW/5x4LnphXDEeg+7v4exQXOJFsOoWLTdlw7i9EcVOUCvjrDpQ9ZULv+np8+uc/wvygDaanimGLNG0i4++C/X0LrK0e8ZsK8ovvcbCCfU1KhHOnF9a187Bi/yg1fiEWL00XP28ijDUvwjjbm5SU4Dz7DZwRdoql5Ng6R7DepPLVXkyl6hiwzg9392/1CS1FyhVozB08eoUjz07sFeuMJJbi5KvsaL+n8l1Jz0sStoR0lGOlwNVFLUrJS3xeNntOrnDkr9KG+Bbo4JW0RWiJtXfvTMBKpc/G0rv5LrEe+Mq+OXfuZqElYirJkONfXCo+C5ZkpVLk4DHOnrd6MOXpYGrZX5yR7o/ULTQ8GZoiNXjui9jJ8as2YUvIqIHge+kX2l4Kbt/ySYRjTSrxJ1EnygjipqTMnW5HnXglWZQROiNsBINtNwYYV87ky7JEGLIM4pV0Czp7lE3x6L8tDia4uBO+vY8/bUXNSXldu/UAfjXYJsrD7bDCWJwll7yuuWBnbYApBujifhyuD/ZXN6PmnB7m/ziA/FnT/s7B8V4DMsoKJr/Ur0lGynplPQpfazWqjyt3hrTVetD5kQfarHS5RH+tA7ab21AgTbQg7rt/kEc0F61MlW6H49oPosW4C+WDEzP0wiN1itQhYY60YQTfyYOwB0rlor/xyjF1wwVns7zKLPvv4c6d4j5Tb4JnvVl8j8omMkScBGUe3Z+zwfAlSI+lR+iVHnSyW20Gls3wE2/iSqN4eHnQcjb2qqJZ5wEjCgrlVUfn0Oo2Cat+LbFIyS+k9Ju/GtoJcNmzrSjRyyctj3gSY9VzuvyM2Ko1Zy1WpV+M4t8mwtzxO3XOtjNO/DmreAFvRsmaqfhMich5oUhZd6D7ysiLRt+JShQPSc6iwb2BgNnTiZYeHbY/rRQ2NOmo3J0jX0zccMK+n60Uwfh4+A5X/ffoUR+alev6FWXmqQykLJW2jNB/47KyJkoz40WlPtnz24Zg84+o/+bwz6LsM8eNaKyLlLyHxEn1dbewh1W3xDTYPmQs4LAxdv1ftMidJ3RrhYpPxlaxNT3V16KBM0I1+5uJ6Pgyk/lalCo3lui/W+hnHV++6xe67dVCplIVt7ayY5T9I9CRKDPuq6577WxihKHV/NOlz9UglD4jH5ebd7SMnGRkTNhxliTsdMU2upbN6FT65HJhrvjape+J+5WyfWxYbgEl+cqTO4WOr5Sq52+7hZY3MsXveblQevSy4G4MTACiTPDQL+6Pz84Vkl7tCPu6/Y5S+fljGCs82CkyyvliwLVTTmBS0CB0sxdmx9FRebaoLXZ38LM82yC4v1X+5iu3cKRSni0q5tnE+s4IDS9lCquSlgtri6qFFm+sn2Jmi4+gHOjhGGHnHSpce/KA0N24Wch9o0Xo/qpX6Ni7WdxRxtYre9qC8mAg2SOM5a9mowGveFGlTM0YuiQ9Uyq87xr9txk8GU1FW6OKBXparxX3w0k/TUojEPqFgbC9hwcE995MIbNSPC7Zyf/8Hql3ctIvxp+wYmj/gejYczOfkYNo71GWMOMusqh91yd0vJMrBrbh+6YYjL4I/Ju9UnauoY9HypwW6CMR+wUG435b/nczD0fbw+XvfchsVUmZwekQb14Wjgx7n2xZ/mx1zFnF5O+2QmjxiJ/9O7FQxc5hSTuFM3EQl+MjKIs/sLRjxBLMAiXLwdIQm6Jus1Ah7XDKMCPp8bEFuekLyoG/i9aJJL4M+LqFM64z4uIWLn8b61EenI5u8HdkASMOThJDKDUOUzX0qfdwbsSTMSvVLQ99H4EhQ2GC6uX3hk0zOa4lU3jfq/yDA24xUASPqUDt2tBhdOMw0C9c7mL75hnB7Q0f4Ae+FUvNbP/19EW++AgMTRILD4GzxehphQMX8EnCnvPKpmhusuGa7L12C31h/unB9zmm40zEhq7qQjsOBt5XfJzD4iIoB3ogbh4x72cYgQOb7czf9YtBWAzInwX+TixFV8pBee3e7sgHRBjTF5QDwYSC8l0ZHMNcKrQpVXLsRBy9RDHLBHpaT1Ve65viBTK7AAhb8mUn6qH7NJtrWDo+wtWIKSXuaEtfe4Xw8E8+FK6EeUxegu+CnVOC7yvQI3+10OCRNky77n3yuN7V+5T6PKmwUR29pClecMljpkd53iRj733IuXJwDHj0FKSzRVx09OJuKDlg7hm948bgWMBH/GgrKUZnxgHsHRyvqoFx90V8+eU3OFWhG5I+juc4cFGW/pvik272h30suIwhE1DMAnObutH7jbSBjIO/s03uxLI1GwZpZhsPHIc0KFofL91VlJ7W1/PRdLgK+uHzUE84Hq53tsLi16JoTfrIVI3cbSw01SIrZIYk3yU2cxdgSEkema1PPPY1Gk2UpR8dh9145Y3nsSTs42wJeRdLC9C6VXlfPQ4clHrkFyBDFZkvPXA2srOYDgVr5O6I3Ek7Ok05SI9yCuS+cENKkLkpHcuiPG9ycbj9gBm1obkkrnkg/bJs3PMEJQhTs7hLsxldSG7Z01ZYzvfD226D/VxI/3/p4B6+x3rRsr0QhUWRl8r33HC/Vxn2scHlZ+2TmEJO/Ax3lFUyZgkJ/0W6zX5cJ53wfc11aPtJ1SjT5s0WIT2tp2Tok/h69fnYyqYy1BYhQ+n5PoRGj3zxYjn4iAfuE+xWiwzd2C+UpCFx2ioUxRhUEx7QQfeA/Oqe0y3ShbxBvGBTS4/8BCmmZSOdfR7OhYZ9CTCHnfs4yHuejVARP4e4j4cbzDQ1NNDnGZEY8kY9Sj56bYYuPnpsKyXmWY1VHUvV16NVH4e2J38xIPR5O4Q9BXJ19fKX7q738vRVXwuC+x3lM1Gyi/FjVbesk5hurZD55PIYemrPHlPa0/q7XqFN6qUr7+sxd9q6q6rXbimBxriqnpWkRGpLJtP7idwbetUzmcIqXa742Ub7UgLttuqpgpcFZ3iLmoJ0Fvke+58Sn2evc3WYt7YGut1ncbY0yrUsS1e32gSP1oxTV6uUGW/kCb1NPTrU/vEsypUraf4Wj4T7ol13DuVvLUQF6tGcN95rUD/szy9BMUsgYDqFv/97DElQJIG/i2VCdBIdD467Ld7OCVNbMjvx4rGTKR47bJ/7VNznJu9Tc/CdtMFUZYJjML2jFlWfXoQ5Y/RXHZyYP8JE/v5OK1ousN9uJN7bjsYrySjLWjrK55uDlLwSGEKOIf60CQtyLMCGJlw9ki+9Ls+J5wY17B+3OHB3xHd9nwYJ9yjbIrlmQ1ZqGVwoR/s3tTCoZffmnKhclAcr8tF8tQnZ01eEnzLxUX09J0GqVvLcDH9QBoTmuw7WYs2HRmlD5AN/Lu7A+c+1zLDZShKxQPocZPwC7ZJqOWNNMiWntW9TE5omISDznB/ecw7YzGVYl7oIK3JDA7IoUtV1GKNVvWoWpyLl0ZQwy334+lw/NhTmQR/28dAlFYvnK/+ghIPTrmTMylNybbNzQ5FKzg1iMGb766gBWcR5e+Sc1VsNSFXT7i2ek6VfNursbrNLfJSUA1dbIVezI4kH2GuLkHcIyP7gakiJtgt189ahBsGSpq85Tyr1thbG3sIxfSVl5f2vacTFNsqiQ2J0S9xvssX95hygL6xCTvKQaDRmfV4ner5W7vgvw3UppJ9GBNqKdlx80xDDxUCgNksLs+sqqh5VNseAay/Dqq58XKyJ5XWG8TtQvKQQdpSg9cu9MGrEd7L/CdQ90HoXx/nkY7Uf+eLFluvBvTj3+xIkD55btCj5+M/Y+7R6elN5DjyBJ37mgfbNs7haESc59FhQnv2UIQtRE34oWb9GtL0GBuErbVU33cLOJyuEDmVYTKzG16YcHMbR520TqqU2H3EpahDOePtGDNMIK9DW9vbY2qFJHAsMfZLaaKdrGUPSi/G2J0tjje+iLTgwmURgXLTviLBZ9VOl9glt25TvWDkfyn0G5gprd5yJIbnSVIq/9mQmPkrKoq5fLsG62mVo7G5HUbh81l/bUfiDYjjSAlePQYEry94HDViMOch4p3nMuX7HVVIOvCflbnhmnPp7oP17pECbV3nbN6idkly+ZKbjL9hRc9AWLNlOiwyYPxb36xh22cH25K2t+HJY3vJo2DG5+ottMZbGw5F7iW9+qxeJa7Tw30xF/WGxxKzyiTk8B9aJpU8O+bvLke61o+7DXqTXNePAi/LIAtUYbE8O1kTEg7gJyoFOXIlDqqaHYmONWTtM2DYYnmNDI4E5GoynSfHuq6/HR74YKVBX5w1CJgwPl3kBsvYDhoaLaH8hxgYavgt16xqw+OO77/zIzhvyqUE8d8ibVI6Hv6cTnX/qw5wf6JCu10Grwjc+2Ikuzpre4mecckqGNFWY46OOiJ0wEqJ1ikhQEgjMpMDGu9BxyA/dKEkDCJm5vOhhiTugg3Fl7KdtX+seOLK2D0k+Ml7svCF1qFLuq18CtClG5L9YhOwMdQZkxntJmqsPOqMurvrCxFHyEB2KKkugPXkQjmmYW1j740M49OOpLSWzLD51/mxsL5zMoSyETBUfHC+vwLx5S1B5Up6Akz/nRAs7ntPGkE1LvFi1vZVAx4WK+I6XYcW8eVhS5YT0y/JdcH7ExsLoUfBEnHTwUsRVRi/N0+XYtakPDR8qP/xUuichpqEJE4b3wLrPBv3ueMk6RWa9Cy2oaGb1XH78jc3Ve6sLljdq4NEa0fib8pizaflaLXD9Lzou1MODltdtUg2mn+PB/uvaX42aHi2M7x4YzA0RL9QflNkAeJYX+pZyfzjW1hvt8SESkb9jFzLaS7Hn9GTkmVYPT1MFrA83oSlashRCZpIHdchhlU0Z5TDctqHwR+tgvbcczb9vRVGECflHuOWCde9ivL6Jjgv1WAxdFvthDSjPuA3b82lYd+helB87hdbC0C638UG1Hb1YBp66/RZYTwZbgBM31KJxj3hASrXAnHg1VYpis2OwjThxw140N5RAN0ovPf6KDaUFLvyLo2kK8vhOPSkL0xvALsdUTBxAyBS64UXX5250316I1JR06JeOsUvuBSvKvE+hcRON2FeVOxy8F1xwn7+NhStTkP5oMjRTWbOoIioMysFhBrpXqlCSb0C6loe72YTSt5zwa/PR9PufA2+vQ/FpHczv1qJInwCfvQ6lr9ngjZogJMR1B0wHge01I1PyzWh8FyyvdyOjZvSLk/Hh4TvnRu+AcndS3IvFP9QjkS4oCCFxRnVB2ddajHVbfCjp+B2qHguNKj7YclagjPW01Gqh9adj1/9rlkq6fI8FhbkmOKUkQZTjeVJdsGCFwRSxB/tESaw5i4uvUBUjISS+qCsoX7MhL7UGmg9OoSlvePVSSJpJkU48aZ+VTtpisM4Vg/VJeTviKHH5dAmMy5xMMSXRJ4SQWUZFHb14uI7WwJm2HdtHBGSmD31/VVahlea1lfWDC0mjq926UWlzJpMlMC5zMhcKyISQeKSeoMx1or3eD+NPI0wU/vUVuAfHFxdAv0JZFZ+97d1GlGwwoMjUjE9rYk+zRwghhKiJqqqvo6W5HEy5xowxxy2JXwcPHsRbb72l3COEkNgZjUZ88MEHyr2podohUcPJOZzleuox5bglcY0FZbYQQshYLV++nIJyeCE9r6FD7R/Pxl2WF0IIIbPfzAjKQ6YwLL+rGY/4HisqzZ3Q/Fstap+m0vaYfe2EqdqCnn7l/qTQIKWsHrXrqcceISS+zIjc1/yV7uCcwlsNSB13FnkPLLmVsJ12wHLcg5BO2yRmPG5PakBmONye3VlQCSEkLFWVlLlrTrS1e4FHslGwPnFwBpeY2pPZhNir8sD/6ks0ZkXqAuaH4+V1qDhvQH1LI7JnYYpNQgghM5dqgjJ/oQ6Zhhp0SfdC243F0u3qJ2CShkNpYXZdRdWjbH0orr0Mizb3UzYvQgghM5ZKqq95uD8JBGSmD/w/lNWeTnm+VEk6Fi9QVkPd6kLDL23QvrJtQiYtJ4QQQqaDSoIyNzQr16ZdKJBKwxycHzaIZeUADgMj8jv6YH91M+r85Tj0hoEmLSeEEDJjqSQoa6HLMEpryaXN+GNDPhJ5P5y1hSg9lAhzWzvMaexRFw42OuBTOgFxV5yo28hmi8pA0+9rYYg0qxCbEWpjGpYsSUMem+rxjrKdEEIIUREVdfTywfFyJgqbQ+Yfeigbew8fQMmjGuCGCzXPb0VdZ2ifaS2S86pw6NdRpim8bkdxgQsGay0K+huwILMO+rpzOPVi/E2eTQghRN1UN06Zv+FFzxd9GLh3IVLDTHTNX/fA3cvG5MzH4h/qRplzl80slYfespOoSksIpuqsaMff3zQozyGEEELUYWYkDxmvazZkVQGNvytCIpuFyrwAWfuBomPRhk0RQggh02NGJA8ZN006KnfniAFZdMMJuxiQxZAM4+MUkAkhhKjP7A7K9yfDsFQOwNznTtjYyiv5MN4vbSKEEEJUZXYH5UE+tH3IQrIWVevTadgUIYQQVYqPoHzNBftJ8VZbgqcy5JDMc5RcmRBCiLrERVD2tB+ES7zVlRmhZxt4F2oW1cBFcZkQQoiKxEFQ9sDZyHKC6VCwRidt4U7a0WnKQTrVYxNCCFGRuCgpJ0jT8mYjnU1wwbnQsC8B5q16alsmZBbiOQ6cuPCUuY/MQHEQlHXIrmDjlK0ozcxCmsGC+b9+m3pgEzKb3PHD9X4l8lLnYcGiRVgkLgv+aQUK93eBY49zPnR1uuChSdSJys3u5CGhbolXz+KV85z7NEgYliWMEDJzcRfEC+6fVsJxTQtDqRmVP30KqVoe3nYLql+2wl9Yjqe8FljPiU/WmnH2apV4qU6IOsVPUCaEzDq+E5Uo3mhFF7TIb/gUB15IHtIs5T9ejNXP2zFYQM5qwsVj+XJCIUJUKD6GRBFCZh3+XJ0SkMUC8KZ67BoWkBnthu3YzvqSKLQrl1JAJqpGQZkQMvPccGLHczVSQAaMML+RLZaVw5mPhSFRuGAlzQ5H1I2CMiFkhuHh2lcKa6BOurAIOQ8p68PxvehuV9aRjdSlo4+54HusKMsphOlEyDSyw93ywPpyFgrNTkR5FiFjRkGZEDKzXGuBZX+wG3V5vhERp5j5SxdalFWsMUL/gLIekQeW3ErYTjtgOe4JtkUP43kvD5XNLjj2f0w9usmEoqBMCJlRPCcOwqmsAyUwrIxc+vV5OgcDq/bxZTG0Jy9E8vpEaB8pQvOOSFXi4rOWPoVEbTKKjvwc2ZGeRMg4UO9rQsgM4oMtZwXKTit3NzTh6pH8CMGTg/O1Rcg7JN8rb/sGtWsoZRBRNyopE0JmDs6LnkBAFun0SyOWZsF3w6UE5FjbkwmZbhSUCSEzx00Ofcoqk/FIlN7UV3rQqazG1p5MyPSjoEwImaHE0u/DUdqTzzvBpqJhhrQn91jwxLxiOEI7aF13wLQxDUuWpCHP7IAvXN7sOz44zHlIW7IEaRtNcFxXthMygSgoE0Jmju9rsFBZlfxn5XYEP7pOswlbZTkpwRK152wLPCmpSAzUe1+3o7jAiWTTKVxsyoZzfyGKm7zKgwE+2F/OgzPZjFPdh5B9woLCn1ox/FmE3C0KyoSQmUOTjJT1ynoUvtZqVB9X7sCAlOTAoCkPOj/yQJuVruS/9sNubsAyy14UpYjP+Yc8yXpXX2glufisVhMaHj6AvYU6aMQLAelZ5/zoo5moyASjoEwImUESkfNCkbLuQPcVOYiGkvJhbwnJdw0N7p2jrPZ0oqVHh+1P6+X71zpgu7kNBWmsGpyH+w8WaXPRylTpVuZDx1Ee2/Ll6V75PzkhPUsM0Kk0uQ2ZYBSUCSEziiarCk2b5Lpny9t1cH4tB2b+hgf2n2Vh3cYOLHv3HE7tVgKvGFQvXxefw3lgecuEvq1msVSsPKRJR+XuHLm9+YYT9v1spQjGx0PTkcxHekWtkjWMg9OuBO6nDZGTlhAyTjROmRAy89zxw1lfioraoWkutRnl2LXndeQ/wsKlD46XM1HYHHyGNsOMYx9XQX+fsiEE116GRZttwCvt+KbGMGJyC8kNB8r+RyFsKEf7N7Uw0CgrMsEoKBNCZi6eg/diN/oGgHsXpkK/dGTZlb/hRc8XfRiYvwzpKdrwwVYM4LbcFSg7qUXVpxdhzojwrOY8rHjZCW1FOy6+GSFwE3IXKCgTQsg1G7JSy+DSmnHqqliSFjfxHI8ETWjYDWQT08L8+6uoShM3iRcF/D0aJFDbMpkg1KZMCIl7nvaDYAOodGVGKSCDd6FmUQ1cof3Iehw4yLKJpWyHkQVkNltV7SLUnB3Z2YyQ8aKgTAiJcx44G1maER0K1sgDpbiTdnSacpAeUlD2nGyQkpHofpIhD6diHcNOm5HzGFVik4lDQZkQEvcSpM7c2UhnvbI5Fxr2JcC8VR4CNShBTluSrWchmYPrvQYkmEqgp5hMJhC1KRNC4p7veBkyn+9AQsYy4Ks5KLI1ozxlWLS97kBZdiE6EgxYhl7M+ddmNJfqqLMXmVAUlAkhhLnFgbsDzLkvSsetOzy4W7eBezTQhBlWRcjdoqBMCCGEqAS1KRNCCCEqQUGZEEIIUQkKyoQQQohKUFAmhBBCVIKCMiGEEKISFJQJIYQQlaCgTAghhKgEBWVCCCFEJSgoE0IIISpBQZkQQghRCQrKhBBCiEpQUCaEEEJUgoIyIYQQohIUlAkhhBCVoKBMCCGEqAQFZUIIIUQlKCgTQgghqgD8f6TKBH7k5cyIAAAAAElFTkSuQmCC;" vertex="1" parent="1">
          <mxGeometry x="357.22" y="577.0699999999999" width="185.57" height="55.86" as="geometry" />
        </mxCell>
        <mxCell id="CYFQGRgLWxrWDskYF3xV-21" style="edgeStyle=orthogonalEdgeStyle;rounded=0;orthogonalLoop=1;jettySize=auto;html=1;exitX=0.5;exitY=1;exitDx=0;exitDy=0;entryX=0.5;entryY=0;entryDx=0;entryDy=0;" edge="1" parent="1" source="CYFQGRgLWxrWDskYF3xV-19" target="CYFQGRgLWxrWDskYF3xV-16">
          <mxGeometry relative="1" as="geometry" />
        </mxCell>
        <mxCell id="CYFQGRgLWxrWDskYF3xV-19" value="Цикл j&lt;div&gt;от 0 до n&lt;/div&gt;" style="shape=loopLimit;whiteSpace=wrap;html=1;" vertex="1" parent="1">
          <mxGeometry x="400" y="480" width="100" height="60" as="geometry" />
        </mxCell>
        <mxCell id="CYFQGRgLWxrWDskYF3xV-26" style="edgeStyle=orthogonalEdgeStyle;rounded=0;orthogonalLoop=1;jettySize=auto;html=1;exitX=0.5;exitY=0;exitDx=0;exitDy=0;entryX=0;entryY=0.5;entryDx=0;entryDy=0;" edge="1" parent="1" source="CYFQGRgLWxrWDskYF3xV-23" target="CYFQGRgLWxrWDskYF3xV-25">
          <mxGeometry relative="1" as="geometry" />
        </mxCell>
        <mxCell id="CYFQGRgLWxrWDskYF3xV-23" value="" style="shape=loopLimit;whiteSpace=wrap;html=1;rotation=-180;" vertex="1" parent="1">
          <mxGeometry x="400.01" y="660" width="100" height="60" as="geometry" />
        </mxCell>
        <mxCell id="CYFQGRgLWxrWDskYF3xV-30" style="edgeStyle=orthogonalEdgeStyle;rounded=0;orthogonalLoop=1;jettySize=auto;html=1;exitX=0.5;exitY=0;exitDx=0;exitDy=0;entryX=0.5;entryY=0;entryDx=0;entryDy=0;" edge="1" parent="1" source="CYFQGRgLWxrWDskYF3xV-25">
          <mxGeometry relative="1" as="geometry">
            <mxPoint x="359" y="820" as="targetPoint" />
          </mxGeometry>
        </mxCell>
        <mxCell id="CYFQGRgLWxrWDskYF3xV-25" value="" style="shape=loopLimit;whiteSpace=wrap;html=1;rotation=-180;" vertex="1" parent="1">
          <mxGeometry x="310" y="740" width="100" height="60" as="geometry" />
        </mxCell>
        <mxCell id="CYFQGRgLWxrWDskYF3xV-27" value="Увеличить j&lt;div&gt;на 1&lt;/div&gt;" style="text;html=1;align=center;verticalAlign=middle;resizable=0;points=[];autosize=1;strokeColor=none;fillColor=none;" vertex="1" parent="1">
          <mxGeometry x="405.01" y="670" width="90" height="40" as="geometry" />
        </mxCell>
        <mxCell id="CYFQGRgLWxrWDskYF3xV-28" value="Увеличить i&lt;div&gt;на 1&lt;/div&gt;" style="text;html=1;align=center;verticalAlign=middle;resizable=0;points=[];autosize=1;strokeColor=none;fillColor=none;" vertex="1" parent="1">
          <mxGeometry x="314" y="750" width="90" height="40" as="geometry" />
        </mxCell>
        <mxCell id="CYFQGRgLWxrWDskYF3xV-31" value="" style="shape=image;verticalLabelPosition=bottom;labelBackgroundColor=default;verticalAlign=top;aspect=fixed;imageAspect=0;image=data:image/png,iVBORw0KGgoAAAANSUhEUgAAAUYAAABFCAYAAAA2NE/qAAARPUlEQVR4Ae1dPYvbShe+f0D/wuXCbQK3SKo13CYmRdxFsHANKRZzi+AUwWwRTIrFpFhEijW3CCJFwAsBbxFwiqBtAk6xeHkJeIsFLaRwsYWKBRVbPC9nJHnl0cjWl2U7OYEl0kiaOfPMzOOZc86c+QP8jxFgBBgBRmAOgT/m7viGEWAEGAFGAEyM3AkYAUaAEZAQYGKUAOFbRoARYASYGLkPMAKMACMgIcDEKAHCt4wAI8AIMDFyH2AEGAFGQEKAiVEChG8ZAUaAEWBi5D7ACDACjICEABOjBAjfMgKMACPAxMh9gBFgBBgBCQEmRgkQvmUEGAFGgImR+wAjwAgwAhICTIwSIHzLCDACjAATI/cBRoARYAQkBJgYJUD4dhsRcOE47jYKzjIXhcCtgyJ7ABNjUQ3D+awJARvDlzq634scFmuqChebGQH3woC+b2JymzmLuQ+ZGOfg4JvtQsDF6LCGxom9XWKztCtBwP3eRe15H0X0BibGlTQRZ1oGAvZJAzsvhnDKKOzOhXuXsKDbX2H26sJdVzUy40c/lFVUD0e5l9VMjAn7Or+2WQi4511UKy0Mb0qQ63YE42AQmom4cKYTjM4sTFTlXw/QPR7nHpwl1CymCBuDAwOj8LL01oF9YcE6n66+Xnnwux2h8/AROt/ysToTY0zX4ORNRmAMY1dD/X0Ri6Zl9XRhHTTQ/xl6z51i/NmArtVgXoXSQ5fTkwbaX/MNzlB2pV7a7xsRna1zacF8+QDagVUYMbo3Ewzf1tH9Hq1eHvyc0ya0h12McsDPxBhtE07ZcAREx6+0YYVnNKuS+cJA/Wgczf3CwKNKF6PoEz9lhO6uAcWXsV9sxIObAZr7A4V6wsHwhQb9ZFqAmDaGRwZ6JwaamqYkRiAPfmMYD/P9cDIxFtDMnEWZCHid/pGKrAoXw4X1ugrjIprx9ERfOnsaHe6gc5Zj2hItduUp9oc6mqcqre0I3Ur8DDmbYCN0Y4kRyIMf1UPL8ePJxJitRfmrNSHgnnVQ0R4pyap4kcbo0uCKcNv87Mm9HsI8MjGS9I3O5xYqb7dpzjjF4HkM+c3NkB2MT3ronU5yLqsXE2Mu/H72oWsa6h+yqVuYGIsfTZzjyhBwMNjXoD1ctkR1YX8bK5aDKQWjwaUsa4SOr1+0v/Qw+DHB4N8HaMjLzPMuKs8HKGLxmVLyjK8TUbUwVEwY7Y/+DPl2DPM/C/Y3A/U/F6kSkoiwmBgRi1+S9p2iv6dBe2KGjGZJZPLeYWJUYXVHOymcbLspbiYYfenDPLFgSx3M/TmGdWrCPB1jmtT1QyXf75rmDNHSNFQO4zV7HjQ0KPIOWgBXJmp7/SixidlTB+ZpD8NrKnGC4VEPlrgONQ4Rq+r70CsbdelaaGsq3PwZ8vEA5oeR+MFxvpswPua1vC8hxlj8krWv/b4GbYGBbBH2TIwSOkJ3pGnQxJ/USW7H6B+00Y1ZQtifmtip1NE97aPztwat0vGXYS5Gb2uo7LZgfu4JhbP2NNsvmSTub3Xrfm2Ldllu7U02cJaCRzMWBbGJ2dOfVdT2WjBOJ/Ez09iBvbTk9bwwHaChJEaaIVfw4HENzQMTlmIKbH82YBwt/htGLPirJUYx49Q06B/TL6eZGFVd8G6C3lMix3linH5q+ITZwEDuHBcGqlrFd9Eg3RR9770ndCVa3XPtEJ2PSLO7fRZLFVYlpo0OK9A0HX15ZhaRoSBiVBJbWL84Qe+JhtZnWhooHKKvt2zGSJZgqc8LaEP6RfdL616VkdkRO2iwJcQYi1/C9vVXGFqGTQBMjEEbSf+PDqPEiJ8DNP/aQe3VMLK8Gr+lQRtS1N9MMPlJWntSaM/rOtyfE7VjsCQD34YRsGE+UbRJ+JXZdcKBM3s/5kIMrPkfR+FGUgmMP1SOhs43ABcmTNl6/b271HIdU/Kaksnir8/7bFIPJgt8QC5Up2e07c7B4Fjl1pNG9CXEGItf0vZN02fm5WZinMdjdqckxtnT6EX8+97g0RRLsmgunBKLgNB/af6gjH3Lf5B04CzLx4b5VJqhkt4x5L84fleF/q4P4zD6Y0lL7mL8/pbJWdRzck+qeEQ/y5Ic3EP+izdDtHbbMD92YZ5HzPWzrxZfOBh9MNDer2JH07Cz20SbrPqSTj4ev6Tt683uxSoj7KC/WDjxlIkxBqR4olN/EP8+E6MasZSpREik90208yLpwFkug8qvT95D7CpDnpEFvYmB5MKzvMT1vkHuUFXZR1SuMBkns3Ji4uotwi95+3rjMs6JPF6YFMTosbynYO3A+DIF7qYYnfTQedFE6w25LfiU76e393WR3j+XfgpInpsx+kct6E9qqNHffhf975LijrZenVmwwn+Xnj5nej6fPhbL1viKLnriXJEfWhvNvRY6x32MpuRcKi3bbkYwA+XyQf9eP3gzEfL1/qX3m+j5spI8wgp9NkCHloBPOhj4z5T7axcJWMizLW8/WlYRMS61SBNYiwaOg8kp9dkW2scDTKg73U1hfWijud+G+U3qq7cW2s8yGMquTDQKCGZQSNNPLdG/Wy86MM+8Meb8GMCgcXs0kEJ12TCfBUbDQkrPlslC/Ba173xxgTG18UnilvnXIncpiNHbxtPe2xEdVH9joP1vF9Y1ubVMYR1WoWlVdL9a6P7TweByKtLH/+nQZkaJoHxv94JGQQD8fuicG6hrFdTehiJjOD4ZvaqjIqzEdbQ+k4XJwehtXchR+auB9pEB87vUoYOiFv7vW4vJknxmw3FduNMx+i91VHclYrwawjhqoy6MKiG9k0g30BLGmjpaPnmSPMKl4aiDxkPyvWug4z+LWucWClnQw+1uv8DwVUu0Pzpu4Njo7+teWzsOJh90aLsttPebMC+msL92UA2MZCHUKZxVO9XAstF/1Z0PwhDKr8xLkl1/2cd46sCZWug8rKDxqgX99RD2zQTmPxoqr6X9z9d9tI/yuuLkqeUy/OLaN1pmQIxpVRopiNEvlFwYiKTk7TZkQRLkJSlvA8tQeAnkWugIgrknRsrdszr61tu5OnrhhATx+gFJyTpWyRl7jQYb7aKIRuLwrI2yVZoImfaLRtMVM8yZ/NSIGhLrGK/7aAaz6FT/6zB/zAqNv9jS9kvXwdUDx36vzwd28Gehtf8mAAJPgsCwMg+h/cXAIOJuMv9OcGd/Mnz/xiBlTf9HZrt+XyQn7lsg+LGZGVZCYrpkTMoZoSaUXarL5fip21dVSODilWylcZ9DemIkFwYiwDeSk22QHlivZmV4lqcIMbgOHCkIQND5VdE2AFKE08yrg9HlAI3HeX+R/Vmr1lEEAgg6UGhm6NcnssReku4t61IQ4wy3FV0E7bRl7Rf0jWS//KqBM0bvHxNEgcE/4Y84217oYvzRKMBpOch9/f87n9vofAmvpMgfUbu3MF9b6Kkc09cv+hIJVO0b80kqFcx9HtmJUdb1BANOThe+UTHEQPq5kx7a+76e8S9yeVmgKL3uoyFmmqpZ5X2lEl0F8grXA/mL34AY5XYK8JDTN6T98hOj3MbB7D/kYiW/Uto9yeKpqLyNBbQqWf6nf0ynNwP5I2oakqkjSqt8hoJ+WWJ0MT7WsaNVUH89wPjGM3EFnV89YyT8XAxfUoep5A9nf2WiTp1P6UbDxHjfW1Uz/vLbL+gb2WeM9zXyrihaTGj2JD/+Be89DNWqgu2q7i9KjN5OEC0Sgjzo/IIYXScSSt791kH1YIDBAc0sc84agx0oyiABayTGSxONVLpFf7b9JKGOMW5mGJeumDGuo/2CvpGLGMPHEyhnTy7sC1uKGONifFRHXeght4s+SFp3tjslZoZMGxEkl6LpaRPVVyUdGZEJ0uTEWL6OUV5ypRhY1mtvmSDPDL1N395SmgbC3HNaRgd6xVsKYqlB282jZ/QjtWgqX7M1EmOmjpLio7h2iktXEOM62o/ImJaXyZaBioFDjsk0Q9ztCT2j19cq6J6HsLsyocsWWrgixNbwauWOeyFBirkk53NaXbVIzxg4yM9F+yGHbj0ShXx61svo5VGM3MtzUbRvzEfpflDvM0mvYzzrePqP19Z9LnR1bXpGGTn9zvIUviFfMBFEUt7cTWT3eEdYvClIADWq6LR3LqYXfbR2Neih2GrkiPpA0/DojQUna6QaIttKdObqfOuiKnQ8dfQu56vpkYJn1bt/Eizx563s3nPfwv2kh0lWOe8Lyn+1re2XSomuGDj+99UDCw4Cw1so9uAdufI0E+zDzt8E5eTg/7hX6jAvARH1nPp0yDuE+rm+Kb6WqUBRtG/M9wExrtCP0dc1SUrh7ne/AaR0/WTkualE0klhbGN4UMeOtgP9wIDxpgV9v4exY6P/vAKtUkHt5RB2MBhmeQRWYoUsSl1hDFqhZPeyj/bjCnb22iI6CBmCmscD9J6FlN97ffyP9ovO5PCfHY68faRyOgU6+Bm48ITyEe8FdQgJUcqlAjNh6NqS9gvcwUIDOx42xcARP7w1NMn/dk+HcTEVEY92HjfRIef+Jy2Yl9Ks0JlgcGxEnb7jC96oJ3SK4gPq12+a0Gk8XQ/Q/NMbc50XOvRD+pEI/ROO7kYBAWhDea7kUtG+MeWUsPMlpuQ8yeSyQ3EPJbcdV7pPVoSDSXiHzMLraKgoV8RfvNdrzu6TFf57vlVo+y2BMFgKKr0I5G/jBo4XZ3PuGNTbuLibNsw3fdjCD7cDaxNm+3I1k9xH6ufHGpV+A8iwab0l1dQEvb9z6u+TyJXrnbj2lTMN9KqSb7X8muI+/VJakclmJOUjxs2oA0sRj0AQKUXldyp/lXTgyN+F7i9NmOeAOErhd4ideWvBPJ2K4Lz1WRzREB4bdZm0ff0+kyHE3y9EjBvVcizMChAoPR6jv9NJfTjUCiq4AVmO3z1COQeN5alsQmIMdt1FNp0sL5uJcTlG/MaGIBC4XniBYRcJlXDgLMqCntFRor7Xwr3by7KPtvk5GaV8P8eZm88m1idh+/rbX5O5eM3Xk4lxHg++S4qAO4bxtI5ekv3ZSfNc9p4/AyjrzBexl1gYe8Yw32/TaX/LgIx5TkQiDo8qIghtTBmFJCcjRj7zpRCwOZNUCLhj9I+HsCNK/FS5pHw5+SmB0/OogS1lYXC+tFA96KN/1NuISDlp5U/9/o8eqnuGsMQPlh4fkTr3Aj9wsbx9iTw1ZD1biWeMBTYXZ7V6BMo9VxrArSPthFl9HddagmLH2VrlyVq4v2GBz5XOCiB/lxoBCnLaUxwwnzqjTB94ztmRGIKZ8uKPflUExCYSOTRiisryjDEFWPyqd9Zy58QWy0xN3uVUEkDeXm3VVs6SBOBiNhsBd4TuQw31REGN1VVhYlTjwqkxCEw+mKDYznRoUtZlSkzWKZK92JzVd7+BQSQFKvyqh4DYBkhxWzNtFPHyYGLk3pQeAWEdXvOMTZzjnX5HQ/rK8hdbhQBFLa8E57tnl5yJMTt2v+2XIiDBPp0prDhkvkRUaC/wTs7jLUoUl4taOQIuRm8eRcIZZimWiTELar/1N1MMnmve2SmqQ+ZLxYbOAqrlD1pcqsxc2KoQIN1zUT+UTIyraqVfNl8Hw5dVtD/2YRyHTnRcW31tDF9S7M5SHSrXVlsuWI0AnYZY3+/DLijYBxOjGmdOXYKA+pD5JR+t7DFFjGFiXBm825Bxwf6mTIzb0OgsIyPACJSKABNjqXBzYYwAI7ANCDAxbkMrsYyMACNQKgJMjKXCzYUxAozANiDAxLgNrcQyMgKMQKkIMDGWCjcXxggwAtuAABPjNrQSy8gIMAKlIsDEWCrcXBgjwAhsAwJMjNvQSiwjI8AIlIoAE2OpcHNhjAAjsA0IMDFuQyuxjIwAI1AqAkyMpcLNhTECjMA2IMDEuA2txDIyAoxAqQj8H+47iKiDoQVWAAAAAElFTkSuQmCC;" vertex="1" parent="1">
          <mxGeometry x="266.87" y="830.5" width="184.26" height="39" as="geometry" />
        </mxCell>
        <mxCell id="CYFQGRgLWxrWDskYF3xV-37" value="да" style="text;html=1;align=center;verticalAlign=middle;resizable=0;points=[];autosize=1;strokeColor=none;fillColor=none;" vertex="1" parent="1">
          <mxGeometry x="236.87" y="360" width="40" height="30" as="geometry" />
        </mxCell>
        <mxCell id="CYFQGRgLWxrWDskYF3xV-46" style="edgeStyle=orthogonalEdgeStyle;rounded=0;orthogonalLoop=1;jettySize=auto;html=1;exitX=0;exitY=0.5;exitDx=0;exitDy=0;entryX=0;entryY=0.5;entryDx=0;entryDy=0;" edge="1" parent="1" source="CYFQGRgLWxrWDskYF3xV-40" target="CYFQGRgLWxrWDskYF3xV-13">
          <mxGeometry relative="1" as="geometry">
            <Array as="points">
              <mxPoint x="230" y="940" />
              <mxPoint x="230" y="440" />
            </Array>
          </mxGeometry>
        </mxCell>
        <mxCell id="CYFQGRgLWxrWDskYF3xV-50" style="edgeStyle=orthogonalEdgeStyle;rounded=0;orthogonalLoop=1;jettySize=auto;html=1;exitX=1;exitY=0.5;exitDx=0;exitDy=0;" edge="1" parent="1" source="CYFQGRgLWxrWDskYF3xV-40" target="CYFQGRgLWxrWDskYF3xV-49">
          <mxGeometry relative="1" as="geometry" />
        </mxCell>
        <mxCell id="CYFQGRgLWxrWDskYF3xV-40" value="&lt;span style=&quot;font-size: 10px;&quot;&gt;max_diff &amp;lt; epsilon&lt;/span&gt;" style="rhombus;whiteSpace=wrap;html=1;" vertex="1" parent="1">
          <mxGeometry x="300" y="900" width="120" height="80" as="geometry" />
        </mxCell>
        <mxCell id="CYFQGRgLWxrWDskYF3xV-44" value="да" style="text;html=1;align=center;verticalAlign=middle;resizable=0;points=[];autosize=1;strokeColor=none;fillColor=none;" vertex="1" parent="1">
          <mxGeometry x="410" y="908" width="40" height="30" as="geometry" />
        </mxCell>
        <mxCell id="CYFQGRgLWxrWDskYF3xV-47" value="нет" style="text;html=1;align=center;verticalAlign=middle;resizable=0;points=[];autosize=1;strokeColor=none;fillColor=none;" vertex="1" parent="1">
          <mxGeometry x="266.87" y="908" width="40" height="30" as="geometry" />
        </mxCell>
        <mxCell id="CYFQGRgLWxrWDskYF3xV-51" style="edgeStyle=orthogonalEdgeStyle;rounded=0;orthogonalLoop=1;jettySize=auto;html=1;exitX=0.5;exitY=1;exitDx=0;exitDy=0;entryX=1;entryY=0.5;entryDx=0;entryDy=0;" edge="1" parent="1" source="CYFQGRgLWxrWDskYF3xV-49" target="CYFQGRgLWxrWDskYF3xV-11">
          <mxGeometry relative="1" as="geometry" />
        </mxCell>
        <mxCell id="CYFQGRgLWxrWDskYF3xV-49" value="Вывести&amp;nbsp;&lt;span style=&quot;background-color: initial;&quot;&gt;xi&lt;/span&gt;" style="shape=parallelogram;perimeter=parallelogramPerimeter;whiteSpace=wrap;html=1;fixedSize=1;" vertex="1" parent="1">
          <mxGeometry x="414" y="1010" width="120" height="60" as="geometry" />
        </mxCell>
      </root>
    </mxGraphModel>
  </diagram>
</mxfile>
